<?xml version="1.0" encoding="UTF-8" standalone="no"?>
<!DOCTYPE svg PUBLIC "-//W3C//DTD SVG 1.1//EN" "http://www.w3.org/Graphics/SVG/1.1/DTD/svg11.dtd">
<svg width="100%" height="100%" viewBox="0 0 168 27" version="1.1" xmlns="http://www.w3.org/2000/svg" xmlns:xlink="http://www.w3.org/1999/xlink" xml:space="preserve" xmlns:serif="http://www.serif.com/" style="fill-rule:evenodd;clip-rule:evenodd;stroke-linejoin:round;stroke-miterlimit:1;">
    <g transform="matrix(1,0,0,1,-228.078,-267.78)">
        <g transform="matrix(1.75464,0,0,1.75464,62.9657,-100.566)">
            <text x="111.919px" y="222.313px" style="font-family:'BookmanOldStyle-Bold', 'Bookman Old Style', serif;font-weight:600;font-size:12px;fill:rgb(35,31,32);">Middlebrook</text>
        </g>
        <g transform="matrix(1,0,0,1,9.12597,18.047)">
            <g transform="matrix(0.797421,0,0,0.59903,54.9142,90.0055)">
                <path d="M227.049,280.217L228.401,268.314L234.146,272.225" style="fill:none;stroke:rgb(35,31,32);stroke-width:2.84px;"/>
            </g>
            <g transform="matrix(-0.797421,0,0,0.59903,410.36,90.0055)">
                <path d="M227.049,280.217L228.401,268.314L234.146,272.225" style="fill:none;stroke:rgb(35,31,32);stroke-width:2.84px;"/>
            </g>
            <g transform="matrix(1,0,0,1,0,-0.304213)">
                <path d="M242.042,271.757L244.328,269.995C244.328,269.995 242.33,267.057 233.183,267.057C231.166,267.057 230,266.72 229.784,266.349C229.568,265.978 231.669,264.402 229.475,263.63C228.045,263.126 220.946,265.746 220.946,265.746L221.286,266.859C221.286,266.859 226.941,265.175 227.961,265.515C228.981,265.855 226.814,266.608 228.677,268.157C230.541,269.706 235.437,269.292 237.367,269.877C239.297,270.463 242.042,271.757 242.042,271.757Z" style="fill:rgb(53,132,238);"/>
            </g>
            <path d="M246.597,254.299L218.952,254.299L218.952,276.293L246.597,276.293L246.597,254.299ZM240.113,271.613C238.891,271.079 237.337,270.458 236.519,270.358C236.498,270.355 236.476,270.353 236.455,270.35L237.174,269.473L238.414,267.802L238.781,266.46L238.793,266.297C240.222,266.543 241.357,266.876 242.248,267.225L241.553,270.232L240.113,271.613ZM225.734,262.885L226.197,266.321C225.352,266.505 224.043,266.836 222.912,267.13L222.456,263.91C223.453,263.565 224.617,263.187 225.734,262.885Z" style="fill:none;"/>
            <clipPath id="_clip1">
                <path d="M246.597,254.299L218.952,254.299L218.952,276.293L246.597,276.293L246.597,254.299ZM240.113,271.613C238.891,271.079 237.337,270.458 236.519,270.358C236.498,270.355 236.476,270.353 236.455,270.35L237.174,269.473L238.414,267.802L238.781,266.46L238.793,266.297C240.222,266.543 241.357,266.876 242.248,267.225L241.553,270.232L240.113,271.613ZM225.734,262.885L226.197,266.321C225.352,266.505 224.043,266.836 222.912,267.13L222.456,263.91C223.453,263.565 224.617,263.187 225.734,262.885Z"/>
            </clipPath>
            <g clip-path="url(#_clip1)">
                <g transform="matrix(0.216564,0,0,0.171113,80.2066,239.135)">
                    <path d="M703.51,206.618C692.024,206.618 669.402,176.796 669.402,176.796C669.402,176.796 657.915,126.912 669.402,116.935C680.888,106.959 726.834,106.959 738.32,116.935C749.807,126.912 738.32,176.796 738.32,176.796C738.32,176.796 714.997,206.618 703.51,206.618Z" style="fill:none;stroke:rgb(35,31,32);stroke-width:15.37px;stroke-linecap:round;stroke-linejoin:miter;stroke-miterlimit:1.5;"/>
                </g>
            </g>
        </g>
    </g>
</svg>
